<svg xmlns="http://www.w3.org/2000/svg" xmlns:xlink="http://www.w3.org/1999/xlink" width="188.463" height="34" viewBox="0 0 188.463 34"><defs><style>.a{fill:none;}.b{clip-path:url(#a);}.c{fill:url(#b);}.d{clip-path:url(#c);}.e{fill:url(#d);}.f{clip-path:url(#e);}.g{fill:url(#f);}.h{clip-path:url(#g);}.i{fill:url(#h);}.j{clip-path:url(#i);}.k{fill:url(#j);}.l{clip-path:url(#k);}.m{fill:url(#l);}.n{clip-path:url(#m);}.o{fill:url(#n);}.p{clip-path:url(#o);}.q{fill:url(#p);}.r{clip-path:url(#q);}.s{fill:url(#r);}.t{clip-path:url(#s);}.u{fill:url(#t);}.v{clip-path:url(#u);}.w{fill:url(#v);}.x{clip-path:url(#w);}.y{fill:url(#x);}.z{clip-path:url(#y);}.aa{fill:url(#z);}.ab{clip-path:url(#aa);}.ac{fill:url(#ab);}.ad{clip-path:url(#ac);}.ae{fill:url(#ad);}.af{clip-path:url(#ae);}.ag{fill:url(#af);}.ah{fill:#fff;font-size:4px;font-family:Montserrat-Bold, Montserrat;font-weight:700;letter-spacing:0.65em;}</style><clipPath id="a"><path class="a" d="M143.189-211.621c0,7.436,6.03,12.833,14.339,12.833,4.572,0,8.323-1.477,10.885-4.276l-4.074-3.5a8.656,8.656,0,0,1-6.424,2.788c-4.758,0-8.081-3.229-8.081-7.85s3.323-7.85,8.081-7.85a8.65,8.65,0,0,1,6.424,2.787l4.074-3.5c-2.562-2.8-6.313-4.274-10.885-4.274-8.309,0-14.339,5.4-14.339,12.833" transform="translate(-143.189 224.454)"/></clipPath><linearGradient id="b" x1="13.691" y1="1.61" x2="13.744" y2="1.61" gradientUnits="objectBoundingBox"><stop offset="0" stop-color="#2e83c5"/><stop offset="0.073" stop-color="#2a79b9"/><stop offset="0.237" stop-color="#2369a4"/><stop offset="0.422" stop-color="#1f5d96"/><stop offset="0.644" stop-color="#1c578d"/><stop offset="1" stop-color="#1c558b"/></linearGradient><clipPath id="c"><path class="a" d="M327.944-222.845v24.638h19.479v-4.726H334.512v-19.911Z" transform="translate(-327.944 222.845)"/></clipPath><linearGradient id="d" x1="14.536" y1="1.529" x2="14.604" y2="1.529" xlink:href="#b"/><clipPath id="e"><path class="a" d="M410.647-217.629l4.284,10.112h-8.568Zm-3.356-5.216-11.466,24.638h6.607l2.126-4.987h12.176l2.127,4.987h6.762l-11.5-24.638Z" transform="translate(-395.825 222.845)"/></clipPath><linearGradient id="f" x1="9.085" y1="1.723" x2="9.13" y2="1.723" xlink:href="#b"/><clipPath id="g"><path class="a" d="M503.159-208.658h6.96c3.773,0,4.564,1.7,4.564,3.118s-.791,3.122-4.564,3.122h-6.96Zm0-9.974h5.8c3.837,0,4.41,1.862,4.41,2.973s-.573,3.009-4.41,3.009h-5.8Zm-6.49-4.213v24.638h14.069c6.83,0,10.59-2.316,10.59-6.523,0-2.785-1.63-4.864-4.588-5.859l-1.182-.4,1.115-.547a5.53,5.53,0,0,0,3.34-5.116c0-3.938-3.663-6.2-10.049-6.2Z" transform="translate(-496.669 222.845)"/></clipPath><linearGradient id="h" x1="9.597" y1="1.646" x2="9.651" y2="1.646" xlink:href="#b"/><clipPath id="i"><path class="a" d="M252.143-178.678a.283.283,0,0,0-.008.287c.047.085.116.158.164.242a.121.121,0,0,1-.027.161,1.665,1.665,0,0,0-.184.214.368.368,0,0,0-.072.3,1.19,1.19,0,0,0,.161.249.2.2,0,0,1,.017.229,1.509,1.509,0,0,1-.185.185.354.354,0,0,0-.116.261.62.62,0,0,0,.13.258.594.594,0,0,1,.129.218c.011.059-.042.1-.083.14a.42.42,0,0,0-.093.532.761.761,0,0,0,.511.326l.141.02.053.007a.24.24,0,0,0-.065.333.4.4,0,0,0,.085.088,1.1,1.1,0,0,0,.359.162,4.019,4.019,0,0,0,.676.121,5.967,5.967,0,0,0,.831.038,2.88,2.88,0,0,0,1.031-.207,1.872,1.872,0,0,0,.778-.611s.408.041,1.031.11a.5.5,0,0,1,.055-.253l.447-.837.274-.515.313-.584c-.975-.113-1.676-.19-1.676-.19a1.592,1.592,0,0,0-1.341-1.276l-.565-.079-.475-.064-.612-.087-.994-.137c-.025,0-.052-.005-.077-.005a.736.736,0,0,0-.615.361" transform="translate(-251.893 179.039)"/></clipPath><linearGradient id="j" x1="38.58" y1="-0.807" x2="38.78" y2="-0.807" gradientUnits="objectBoundingBox"><stop offset="0" stop-color="#20aeda"/><stop offset="1" stop-color="#107aab"/></linearGradient><clipPath id="k"><path class="a" d="M248.358-217.75l-.079.041.048-.025.057-.029-.026.013m-1.706-5.929a14.426,14.426,0,0,0-3.5.987,15.028,15.028,0,0,0-2.972,1.7,14.971,14.971,0,0,0-1.544,1.254l.913.824.027.023a12.617,12.617,0,0,1,1.225-1,15.352,15.352,0,0,1,1.382-.93q.517-.305,1.064-.561c.654.988,1.315,1.971,2,2.938.3.42.6.851.944,1.244a9.65,9.65,0,0,0,.8.783,2.532,2.532,0,0,1,1.281-1.288c-.057.029-.077.039.079-.041.082-.042.068-.034.026-.013a1.389,1.389,0,0,1,.577-.164,6.658,6.658,0,0,1-.536-.58c-.173-.226-.331-.463-.484-.7-.324-.507-.629-1.024-.926-1.544s-.6-1.062-.893-1.6a13.814,13.814,0,0,1,3.935-.238,14.53,14.53,0,0,1,3.728.774l.008-.015c.015.005.029.011.045.015l.468-1.134a15.863,15.863,0,0,0-3.718-.817c-.557-.056-1.12-.085-1.683-.085a15,15,0,0,0-2.255.166" transform="translate(-238.64 223.845)"/></clipPath><linearGradient id="l" x1="19.392" y1="4.742" x2="19.477" y2="4.742" xlink:href="#b"/><clipPath id="m"><path class="a" d="M274.451-177.055c-.024.089-.047.176,0,0m.026-.1h0m-2.345-3.241a1.7,1.7,0,0,0-1.719.8l-.156.291-.312.584-.274.515-.447.837a.63.63,0,0,0,.128.7.342.342,0,0,0,.278.122,2.09,2.09,0,0,0,.3-.066c.074-.017.125-.015.17.045s.093.147.149.214a.49.49,0,0,0,.275.187.826.826,0,0,0,.33-.06.243.243,0,0,1,.258.056,1.755,1.755,0,0,1,.139.231.36.36,0,0,0,.246.17.861.861,0,0,0,.307-.044.536.536,0,0,1,.253-.039c.064.019.091.092.121.141a.487.487,0,0,0,.6.19.74.74,0,0,0,.391-.322l.355-.664a.292.292,0,0,0,.263.138.53.53,0,0,0,.333-.113,1.031,1.031,0,0,0,.329-.565,5.469,5.469,0,0,0,.241-1.032,1.668,1.668,0,0,0-.374-1.218s.25-.522.62-1.253a.558.558,0,0,1-.239-.12l-.738-.633-.454-.391-.5-.432c-.5.987-.873,1.738-.873,1.738" transform="translate(-269.167 182.135)"/></clipPath><linearGradient id="n" x1="41.219" y1="-1.315" x2="41.447" y2="-1.315" gradientUnits="objectBoundingBox"><stop offset="0" stop-color="#21bae9"/><stop offset="1" stop-color="#078fce"/></linearGradient><clipPath id="o"><path class="a" d="M276.951-195.192l-.918.375-.568.233-.4.162q.673.555,1.349,1.1a1.457,1.457,0,0,0,.335,1.759l.269.23.5.432.454.391.738.633a.752.752,0,0,0,.753.085.322.322,0,0,0,.206-.21,1.568,1.568,0,0,0,.017-.287c0-.072.018-.12.093-.146.094-.029.193-.043.285-.079a.428.428,0,0,0,.266-.22,1.216,1.216,0,0,0,.021-.314c.024-.241.311-.188.488-.265a.3.3,0,0,0,.188-.218,1.7,1.7,0,0,0,.019-.287c0-.064,0-.148.063-.187a1.523,1.523,0,0,1,.23-.061.441.441,0,0,0,.265-.549.684.684,0,0,0-.2-.347l-.475-.408c.23-.021.2-.281.132-.423a1.822,1.822,0,0,0-.4-.52,2.727,2.727,0,0,0-1.237-.7,2.45,2.45,0,0,0-.4-.064.061.061,0,0,1,.011-.017,2.34,2.34,0,0,0-.874.137s-.056-.043-.157-.125c-.149-.118-.39-.312-.688-.557a.674.674,0,0,1-.367.449" transform="translate(-275.07 195.641)"/></clipPath><linearGradient id="p" x1="36.714" y1="-1.151" x2="36.901" y2="-1.151" gradientUnits="objectBoundingBox"><stop offset="0" stop-color="#107aab"/><stop offset="1" stop-color="#20aeda"/></linearGradient><clipPath id="q"><path class="a" d="M228.308-205.046a12.242,12.242,0,0,0-.964,3.408,12.031,12.031,0,0,0,.106,3.75,12.355,12.355,0,0,0,1.128,3.336c.17.331.354.659.553.976l1.131-.611a11.25,11.25,0,0,1-1.374-3.222,11.216,11.216,0,0,1-.317-2.039c1.2-.166,2.4-.335,3.6-.546.395-.069.8-.141,1.182-.245a13.443,13.443,0,0,0,1.449-.512l.037-.015c-.489-.314-.595-.72-.71-1.594a1.5,1.5,0,0,1,.028-.674,8.707,8.707,0,0,1-1.4.422c-.473.087-.956.136-1.437.182-.848.082-1.7.142-2.55.194a11.212,11.212,0,0,1,1.2-3.242,11.623,11.623,0,0,1,1.186-1.733l-1.038-.738a12.761,12.761,0,0,0-1.8,2.9" transform="translate(-227.245 207.947)"/></clipPath><linearGradient id="r" x1="35.607" y1="0.792" x2="35.781" y2="0.792" xlink:href="#b"/><clipPath id="s"><path class="a" d="M266.689-205.367l-.793.326c.06-.173-.129-.3-.29-.333a1.232,1.232,0,0,0-.737.171,3.415,3.415,0,0,0-.946.674,1.751,1.751,0,0,0-.495,1.131s-.2.091-.523.234a.6.6,0,0,1,.2.374l.065.93.039.576.037.515c.667-.291,1.112-.49,1.112-.49a1.739,1.739,0,0,0,1.868.412l.567-.231.4-.162.568-.233.918-.375a.655.655,0,0,0,.383-.62.3.3,0,0,0-.145-.262,2.5,2.5,0,0,0-.258-.116c-.074-.033-.114-.065-.105-.146a1.461,1.461,0,0,0,.029-.349.325.325,0,0,0-.168-.271c-.084-.044-.18-.067-.261-.113-.21-.121-.027-.368-.051-.544-.025-.209-.247-.27-.424-.347-.06-.027-.137-.056-.149-.122a.808.808,0,0,1,.029-.207.445.445,0,0,0-.362-.443.841.841,0,0,0-.225-.029.7.7,0,0,0-.275.051" transform="translate(-262.906 205.418)"/></clipPath><linearGradient id="t" x1="40.118" y1="0.603" x2="40.334" y2="0.603" xlink:href="#n"/><clipPath id="u"><path class="a" d="M252.626-198.891c-.077.06-.139.136-.217.2a.152.152,0,0,1-.181,0,1.534,1.534,0,0,0-.284-.126.414.414,0,0,0-.326.02,1.616,1.616,0,0,0-.207.188.228.228,0,0,1-.228.063,1.4,1.4,0,0,1-.245-.133.4.4,0,0,0-.3-.042.727.727,0,0,0-.246.176.566.566,0,0,1-.2.158c-.06.019-.118-.025-.165-.053a.5.5,0,0,0-.567.026.672.672,0,0,0-.242.536l.048.7a.4.4,0,0,0-.281.016.545.545,0,0,0-.245.478,3.343,3.343,0,0,0,.068.789,3.244,3.244,0,0,0,.148.616,1.2,1.2,0,0,0,.333.5,2.533,2.533,0,0,0,.8.426s.089.8.182,1.849a.691.691,0,0,1,.416-.09l.994.137.612.087.475.064c-.105-1.188-.2-2.118-.2-2.118a1.541,1.541,0,0,0,1.063-1.487l-.032-.459-.037-.515-.039-.576-.065-.93a.684.684,0,0,0-.526-.556.443.443,0,0,0-.1-.012.319.319,0,0,0-.2.072" transform="translate(-248.733 198.963)"/></clipPath><linearGradient id="v" x1="46.423" y1="-1.617" x2="46.691" y2="-1.617" gradientUnits="objectBoundingBox"><stop offset="0" stop-color="#21bae9"/><stop offset="0.315" stop-color="#1aa1d1"/><stop offset="0.749" stop-color="#1285b7"/><stop offset="1" stop-color="#107bad"/></linearGradient><clipPath id="w"><path class="a" d="M240.919-164.418c-.131.525-.278,1.048-.433,1.571-.17.573-.35,1.147-.532,1.717a12.334,12.334,0,0,1-3.872-3.376l-.036.021-1.04.67a13.393,13.393,0,0,0,2.13,2.25,14.007,14.007,0,0,0,2.569,1.7,14.357,14.357,0,0,0,2.9,1.116,14.634,14.634,0,0,0,3.108.488,15.048,15.048,0,0,0,3.55-.244L249-159.691l-.052.01v-.01a13.4,13.4,0,0,1-4.028.15,13.325,13.325,0,0,1-2.183-.435c.246-1.082.484-2.163.692-3.25a10.948,10.948,0,0,0,.263-1.941,3.852,3.852,0,0,1-1.07.066c-1-.058-1.386-.234-1.5-.4a6.794,6.794,0,0,1-.2,1.086" transform="translate(-235.006 165.504)"/></clipPath><linearGradient id="x" x1="21.168" y1="1.864" x2="21.261" y2="1.864" xlink:href="#b"/><clipPath id="y"><path class="a" d="M288.988-210.521l.044.039-.071-.065-.049-.042.076.068m-1.028-7.7a12.587,12.587,0,0,1,3.489,2.485c-.782.806-1.56,1.617-2.319,2.448a12.792,12.792,0,0,0-1.532,1.881c-.045.075-.091.149-.134.223a2.671,2.671,0,0,1,1.449.6c-.027-.025-.027-.025.049.042.162.146.133.121.071.065a1.6,1.6,0,0,1,.507.7,5.152,5.152,0,0,1,.359-.491c.124-.146.257-.287.391-.424.363-.377.745-.737,1.128-1.094q.894-.826,1.81-1.627a11.226,11.226,0,0,1,1.284,3.295,10.994,10.994,0,0,1,.247,2.041l1.306-.028a12.266,12.266,0,0,0-.651-3.623,12.7,12.7,0,0,0-1.6-3.139,13.149,13.149,0,0,0-2.41-2.6,14.131,14.131,0,0,0-2.842-1.821Z" transform="translate(-287.464 219.299)"/></clipPath><linearGradient id="z" x1="30.63" y1="1.761" x2="30.785" y2="1.761" gradientUnits="objectBoundingBox"><stop offset="0" stop-color="#2e83c5"/><stop offset="0.279" stop-color="#2773b0"/><stop offset="0.734" stop-color="#1f5d95"/><stop offset="1" stop-color="#1c558b"/></linearGradient><clipPath id="aa"><path class="a" d="M290.661-181.557l-.052,0a10.789,10.789,0,0,1-1.747,5.249c-1.1-.454-2.207-.9-3.324-1.32-.4-.146-.8-.294-1.2-.416a10.76,10.76,0,0,0-1.388-.286,2.418,2.418,0,0,1-.1,1.386c-.1.317-.163.73-.5.9a7.554,7.554,0,0,1,.746.179c.179.056.354.124.527.193.493.2.975.419,1.453.645.654.307,1.3.629,1.945.953a13.608,13.608,0,0,1-5.635,3.258l.387,1.16.048-.013.005.013a14.98,14.98,0,0,0,3.162-1.32,14.81,14.81,0,0,0,2.7-1.94,13.964,13.964,0,0,0,2.308-2.7,12.545,12.545,0,0,0,1.487-3.157,11.212,11.212,0,0,0,.486-2.738l-1.306-.057Z" transform="translate(-281.384 181.56)"/></clipPath><linearGradient id="ab" x1="26.071" y1="1.029" x2="26.197" y2="1.029" xlink:href="#b"/><clipPath id="ac"><path class="a" d="M40.679-225.912H5.036l-1.33,6.347H37.985l-.021.061-7.987,21.911-2.086,5.682H186.86v-6.348H39.669l5.145-13.973L47.5-219.5l2.359-6.408Z" transform="translate(-3.706 225.912)"/></clipPath><linearGradient id="ad" x1="2.228" y1="1.499" x2="2.235" y2="1.499" gradientUnits="objectBoundingBox"><stop offset="0" stop-color="#dd7023"/><stop offset="1" stop-color="#e18e1e"/></linearGradient><clipPath id="ae"><path class="a" d="M-7.016-183.539a2.438,2.438,0,0,0-2.429,1.85l-3.432,15.95a2.283,2.283,0,0,0,2.355,2.67H15.113l2.357-6.369H-1.27a1.82,1.82,0,0,1-1.877-2.123l.93-4.374A1.885,1.885,0,0,1-.338-177.37H15.27l2.257-6.169Z" transform="translate(12.925 183.539)"/></clipPath><linearGradient id="af" x1="12.945" y1="1.453" x2="12.989" y2="1.453" xlink:href="#ad"/></defs><g transform="translate(12.925 225.912)"><g transform="translate(36.909 -225.447)"><g class="b"><rect class="c" width="25.224" height="25.666" transform="translate(0 0)"/></g></g><g transform="translate(95.886 -224.933)"><g class="d"><rect class="e" width="19.479" height="24.638" transform="translate(0)"/></g></g><g transform="translate(117.554 -224.933)"><g class="f" transform="translate(0 0)"><rect class="g" width="29.798" height="24.638" transform="translate(0 0)"/></g></g><g transform="translate(149.745 -224.933)"><g class="h" transform="translate(0 0)"><rect class="i" width="24.659" height="24.638" transform="translate(0 0)"/></g></g><g transform="translate(71.609 -210.95)"><g class="j" transform="translate(0 0)"><rect class="k" width="6.63" height="4.742" transform="translate(-0.026 0)"/></g></g><g transform="translate(67.378 -225.252)"><g class="l" transform="translate(0 0)"><rect class="m" width="15.668" height="7.424" transform="translate(0 0)"/></g></g><g transform="translate(77.123 -211.938)"><g class="n" transform="translate(0 0)"><rect class="o" width="5.829" height="6.69" transform="translate(-0.059 0)"/></g></g><g transform="translate(79.008 -216.249)"><g class="p" transform="translate(0 0)"><rect class="q" width="7.106" height="7.614" transform="translate(-1.116 5.74) rotate(-79)"/></g></g><g transform="translate(63.741 -220.177)"><g class="r" transform="translate(0 0)"><rect class="s" width="7.656" height="14.372" transform="translate(-0.063 0)"/></g></g><g transform="translate(75.125 -219.37)"><g class="t"><rect class="u" width="6.162" height="4.842" transform="translate(0 0)"/></g></g><g transform="translate(70.6 -217.31)"><g class="v" transform="translate(0 0)"><rect class="w" width="4.954" height="6.653" transform="translate(-0.016 0)"/></g></g><g transform="translate(66.218 -206.629)"><g class="x"><rect class="y" width="14.252" height="7.307" transform="translate(0 0)"/></g></g><g transform="translate(82.964 -223.801)"><g class="z" transform="translate(0 0)"><rect class="aa" width="8.601" height="11.217" transform="translate(0 0)"/></g></g><g transform="translate(81.023 -211.754)"><g class="ab" transform="translate(0 0)"><rect class="ac" width="10.584" height="11.906" transform="translate(0 0)"/></g></g><g transform="translate(-12.925 -225.912)"><g transform="translate(5.309 0)"><g class="ad" transform="translate(0)"><rect class="ae" width="183.154" height="34" transform="translate(0)"/></g></g><g transform="translate(0 13.526)"><g class="af"><rect class="ag" width="30.702" height="20.47" transform="translate(-0.25 0)"/></g></g></g><text class="ah" transform="translate(39.907 -193.509)"><tspan x="0" y="0">COLLABORATE &amp; COMMUNICATE</tspan></text></g></svg>